<svg width="132" height="41" viewBox="0 0 132 41" fill="none" xmlns="http://www.w3.org/2000/svg">
<path fill-rule="evenodd" clip-rule="evenodd" d="M2.44898 31.4774V7.54789H8.2626V31.6073C8.2626 36.6758 5.33355 40.6939 0 40.7365V35.0587C2.40418 34.8396 2.44898 33.7047 2.44898 31.4774ZM23.2834 7.54979C30.4524 7.54979 36.1351 13.3149 36.1351 20.4342C36.1351 27.772 30.6281 33.4076 23.2834 33.4076C16.2011 33.4076 10.3437 27.598 10.3437 20.5215C10.3437 13.4022 16.1144 7.54979 23.2834 7.54979ZM51.2427 33.3952L51.2458 33.4076C45.0951 33.3866 38.4024 28.4368 38.0627 21.7028C38.0507 21.4669 38.0627 20.6263 38.0627 20.3863V0.299316H43.877V10.5107C43.9862 10.4281 44.0966 10.3469 44.208 10.2673C45.444 9.14249 46.9595 8.35138 48.5853 7.92662C48.9961 7.80027 49.3764 7.70979 49.6893 7.68694V7.69773C50.2692 7.60694 50.8538 7.54979 51.4393 7.54979C54.75 7.54979 57.6349 8.89328 59.7715 11.0146L57.3642 17.6869C56.4037 14.8996 53.9849 12.8774 50.7407 12.8774C46.7193 12.8774 43.5269 16.1974 43.5269 20.1733C43.5269 24.452 46.3692 28.078 50.8274 28.078C51.9572 28.078 52.9711 27.8361 53.8565 27.4098L51.6938 33.4034C51.6525 33.4034 51.6125 33.4076 51.5712 33.4076C51.4562 33.4076 51.3542 33.3968 51.2423 33.3949L51.2427 33.3952ZM66.3025 13.0003V33.0482H61.756V0.726935H66.3025V8.85075H70.2813V13.0003H66.3025ZM110.205 33.0339V0.365031H114.751V33.0339H110.205ZM126.002 7.57011H131.378L121.003 19.9228L131.19 33.038H125.507L115.801 20.1844L126.002 7.57011H126.002ZM79.8879 13.7431C77.7458 14.8342 77.2216 17.6298 77.2216 19.8139V33.0488H72.6757V7.5809H76.9156V11.0349H77.0024C78.4887 8.93741 80.7181 8.28376 83.1661 8.19455V12.8685C82.1602 12.8685 80.7629 13.2615 79.8879 13.7431ZM100.919 27.2266H106.127C103.923 30.9758 99.9973 33.3542 95.4942 33.3542C88.5877 33.3542 83.1664 27.3701 83.1664 20.6012C83.1664 13.6114 88.5009 7.88916 95.5813 7.88916C102.445 7.88916 107.909 13.5247 107.909 20.3384C107.909 21.0806 107.866 21.8663 107.779 22.6092H87.7127C88.6309 26.3663 91.6918 29.206 95.6706 29.206C97.6019 29.2012 99.4661 28.4981 100.919 27.2266ZM23.2834 28.078C27.3925 28.078 30.3215 24.5396 30.3215 20.5657C30.3215 16.6774 27.3921 12.8777 23.2834 12.8777C19.1734 12.8777 16.1566 16.5901 16.1566 20.5215C16.1566 24.5838 19.087 28.078 23.2834 28.078ZM95.539 12.039C91.6047 12.039 87.9757 15.14 87.7127 19.1158H103.363C103.101 15.14 99.4734 12.039 95.539 12.039Z" fill="white"/>
</svg>
